<svg xmlns="http://www.w3.org/2000/svg" xmlns:xlink="http://www.w3.org/1999/xlink" width="1920" zoomAndPan="magnify" viewBox="0 0 1440 809.999993" height="1080" preserveAspectRatio="xMidYMid meet" version="1.0"><defs><clipPath id="b11341e195"><path d="M 228 537.601562 L 1061 537.601562 L 1061 718 L 228 718 Z M 228 537.601562 " clip-rule="nonzero"/></clipPath></defs><path fill="#95bd5e" d="M 1068.429688 712.960938 C 1064.339844 715.210938 1059.742188 712.777344 1057.476562 716.855469 C 1111.421875 716.878906 1165.367188 716.898438 1219.3125 716.917969 C 1216.980469 713.5625 1212.945312 713.992188 1208.914062 712.511719 C 1208.0625 712.199219 1207.242188 711.941406 1206.441406 711.71875 L 1205.757812 677.25 L 1221.371094 684.160156 L 1221.585938 683.699219 L 1209.300781 676.542969 L 1205.9375 675.871094 C 1205.988281 675.257812 1206.035156 674.644531 1206.082031 674.03125 C 1205.53125 668.199219 1204.980469 662.363281 1204.429688 656.535156 C 1204.230469 656.546875 1204.03125 656.554688 1203.835938 656.566406 C 1203.675781 661.355469 1203.511719 666.148438 1203.351562 670.941406 C 1203.800781 671.863281 1204.335938 672.949219 1204.78125 673.878906 C 1204.351562 674.277344 1204.273438 674.738281 1204.445312 675.480469 L 1189.554688 686.15625 L 1189.828125 686.53125 L 1202.632812 679.664062 L 1204.21875 677.867188 L 1203.523438 711.0625 C 1199.519531 710.3125 1195.722656 710.179688 1190.679688 708.667969 C 1188.257812 707.9375 1185.652344 708.042969 1182.898438 708.273438 L 1181.601562 642.742188 L 1183.101562 643.183594 C 1193.292969 644.332031 1203.480469 645.488281 1213.671875 646.636719 C 1213.722656 646.292969 1213.78125 645.949219 1213.828125 645.605469 C 1205.675781 643.609375 1197.527344 641.613281 1189.375 639.621094 C 1187.628906 640.054688 1185.574219 640.574219 1183.828125 641.011719 C 1183.304688 640.132812 1182.539062 639.828125 1181.214844 639.859375 L 1168.273438 610.539062 L 1167.527344 610.878906 L 1174.695312 635.265625 L 1178.503906 640.359375 L 1160.25 665.71875 L 1160.96875 666.253906 L 1177.640625 647.789062 L 1178.921875 644.796875 L 1177.585938 708.675781 C 1176.082031 708.738281 1174.546875 708.714844 1172.976562 708.519531 C 1167.878906 707.882812 1162.359375 706.921875 1156.714844 706.449219 L 1156.265625 683.773438 L 1158.363281 693.894531 L 1158.773438 693.804688 L 1157.804688 680.847656 L 1156.449219 677.898438 L 1168.292969 667.175781 L 1167.992188 666.835938 L 1157.675781 674.277344 L 1155.902344 676.78125 C 1155.417969 676.515625 1154.9375 676.253906 1154.453125 675.992188 C 1149.480469 674.324219 1144.511719 672.65625 1139.539062 670.992188 C 1139.476562 671.15625 1139.417969 671.324219 1139.347656 671.492188 C 1143.207031 673.359375 1147.070312 675.230469 1150.925781 677.101562 C 1151.847656 677.070312 1152.929688 677.035156 1153.847656 677 C 1153.996094 677.429688 1154.28125 677.664062 1154.789062 677.800781 L 1154.199219 706.269531 C 1151.042969 706.09375 1147.863281 706.105469 1144.703125 706.441406 C 1141.71875 706.757812 1138.5 706.347656 1134.820312 706.121094 L 1133.160156 622.027344 L 1161.96875 649.445312 C 1162.296875 649.128906 1162.625 648.8125 1162.953125 648.496094 C 1156.015625 639.957031 1149.082031 631.425781 1142.140625 622.886719 C 1139.96875 621.960938 1137.410156 620.878906 1135.234375 619.957031 C 1135.382812 618.621094 1134.824219 617.695312 1133.417969 616.675781 L 1143.125 575.800781 L 1142.078125 575.5625 L 1130.25 606.714844 L 1130.199219 615.050781 L 1091.03125 627.101562 L 1091.355469 628.230469 L 1123.402344 622.132812 L 1129.671875 618.558594 L 1127.84375 706.070312 C 1126.460938 706.15625 1125.015625 706.316406 1123.496094 706.589844 C 1119.398438 707.304688 1115.664062 707.628906 1112.152344 707.800781 L 1111.21875 660.648438 L 1124.476562 677.015625 L 1125.007812 676.597656 L 1114.871094 660.789062 L 1111.320312 657.972656 C 1111.746094 657.28125 1112.175781 656.589844 1112.601562 655.894531 C 1115.46875 648.703125 1118.332031 641.515625 1121.191406 634.324219 C 1120.953125 634.214844 1120.714844 634.109375 1120.476562 634.003906 C 1117.402344 639.542969 1114.328125 645.082031 1111.25 650.617188 C 1111.21875 651.972656 1111.195312 653.574219 1111.164062 654.933594 C 1110.417969 655.140625 1110.046875 655.636719 1109.800781 656.613281 L 1085.863281 660.203125 L 1085.960938 660.8125 L 1105.15625 660.4375 L 1109.175781 658.851562 L 1108.152344 707.933594 C 1102.164062 708.085938 1096.691406 708.039062 1090.921875 709.117188 L 1090.492188 687.277344 L 1102.785156 684.871094 L 1102.746094 684.507812 L 1092.589844 685.351562 L 1090.339844 686.335938 C 1090.117188 685.957031 1089.894531 685.578125 1089.667969 685.195312 C 1086.949219 681.996094 1084.226562 678.796875 1081.511719 675.601562 C 1081.398438 675.6875 1081.289062 675.777344 1081.171875 675.867188 C 1083.046875 678.746094 1084.921875 681.625 1086.792969 684.503906 C 1087.4375 684.863281 1088.199219 685.28125 1088.84375 685.640625 C 1088.753906 686.050781 1088.894531 686.359375 1089.300781 686.722656 L 1084.941406 699.101562 L 1085.261719 699.210938 L 1089.355469 691.113281 L 1088.972656 709.539062 C 1088.90625 709.554688 1088.832031 709.570312 1088.765625 709.585938 C 1081.746094 711.25 1077.636719 710.445312 1073.5 711.167969 L 1072.496094 660.171875 L 1074.441406 659.789062 C 1082.238281 656.761719 1090.039062 653.742188 1097.84375 650.71875 C 1097.75 650.449219 1097.660156 650.183594 1097.566406 649.914062 C 1090.921875 651.554688 1084.273438 653.199219 1077.628906 654.835938 C 1076.53125 655.8125 1075.242188 656.964844 1074.144531 657.941406 C 1073.433594 657.507812 1072.765625 657.574219 1071.816406 658.097656 L 1051.367188 641.808594 L 1050.957031 642.332031 L 1065.363281 657.246094 L 1070.042969 659.484375 L 1066.449219 684.714844 L 1067.167969 684.828125 L 1070.066406 673.5625 L 1069.25 712.542969 C 1068.980469 712.667969 1068.710938 712.808594 1068.429688 712.960938 Z M 1068.429688 712.960938 " fill-opacity="1" fill-rule="evenodd"/><path fill="#95bd5e" d="M 220.632812 713.28125 C 224.726562 715.535156 229.328125 713.101562 231.589844 717.183594 C 177.640625 717.203125 123.699219 717.226562 69.75 717.246094 C 72.085938 713.890625 76.125 714.320312 80.148438 712.839844 C 81.003906 712.523438 81.824219 712.269531 82.625 712.042969 L 83.304688 677.570312 L 67.691406 684.480469 L 67.480469 684.019531 L 79.765625 676.863281 L 83.128906 676.195312 C 83.078125 675.582031 83.03125 674.96875 82.976562 674.355469 C 83.53125 668.523438 84.082031 662.6875 84.632812 656.855469 C 84.828125 656.867188 85.027344 656.878906 85.230469 656.886719 C 85.390625 661.679688 85.550781 666.46875 85.714844 671.261719 C 85.261719 672.1875 84.730469 673.273438 84.285156 674.203125 C 84.714844 674.597656 84.792969 675.058594 84.621094 675.804688 L 99.511719 686.476562 L 99.238281 686.851562 L 86.429688 679.988281 L 84.84375 678.1875 L 85.535156 711.382812 C 89.539062 710.636719 93.335938 710.5 98.378906 708.988281 C 100.800781 708.261719 103.40625 708.367188 106.167969 708.59375 L 107.457031 643.066406 L 105.960938 643.507812 C 95.769531 644.65625 85.578125 645.808594 75.386719 646.957031 C 75.335938 646.613281 75.277344 646.269531 75.226562 645.929688 C 83.378906 643.933594 91.53125 641.9375 99.683594 639.941406 C 101.429688 640.378906 103.484375 640.898438 105.230469 641.335938 C 105.757812 640.457031 106.519531 640.148438 107.851562 640.179688 L 120.789062 610.863281 L 121.53125 611.199219 L 114.367188 635.585938 L 110.554688 640.679688 L 128.808594 666.039062 L 128.09375 666.574219 L 111.417969 648.109375 L 110.140625 645.117188 L 111.476562 709 C 112.976562 709.0625 114.511719 709.035156 116.078125 708.84375 C 121.183594 708.203125 126.695312 707.242188 132.339844 706.769531 L 132.789062 684.097656 L 130.691406 694.214844 L 130.285156 694.125 L 131.253906 681.171875 L 132.609375 678.21875 L 120.765625 667.5 L 121.066406 667.15625 L 131.382812 674.597656 L 133.15625 677.101562 C 133.640625 676.835938 134.125 676.578125 134.605469 676.3125 C 139.578125 674.644531 144.546875 672.976562 149.519531 671.3125 C 149.582031 671.480469 149.644531 671.644531 149.710938 671.8125 C 145.851562 673.683594 141.988281 675.554688 138.132812 677.425781 C 137.210938 677.394531 136.128906 677.355469 135.210938 677.320312 C 135.066406 677.753906 134.785156 677.984375 134.269531 678.121094 L 134.867188 706.59375 C 138.019531 706.417969 141.199219 706.433594 144.359375 706.765625 C 147.34375 707.082031 150.5625 706.671875 154.246094 706.4375 L 155.902344 622.347656 L 127.09375 649.761719 C 126.765625 649.445312 126.4375 649.128906 126.113281 648.8125 C 133.046875 640.273438 139.988281 631.742188 146.925781 623.203125 C 149.097656 622.277344 151.65625 621.199219 153.828125 620.265625 C 153.683594 618.933594 154.234375 618.007812 155.648438 616.988281 L 145.941406 576.113281 L 146.988281 575.871094 L 158.816406 607.027344 L 158.867188 615.363281 L 198.035156 627.414062 L 197.710938 628.539062 L 165.664062 622.445312 L 159.390625 618.871094 L 161.222656 706.378906 C 162.605469 706.46875 164.050781 706.628906 165.570312 706.894531 C 169.664062 707.613281 173.398438 707.933594 176.914062 708.105469 L 177.84375 660.957031 L 164.585938 677.320312 L 164.054688 676.90625 L 174.195312 661.097656 L 177.746094 658.28125 C 177.320312 657.589844 176.886719 656.898438 176.460938 656.203125 C 173.597656 649.011719 170.738281 641.824219 167.871094 634.628906 C 168.109375 634.523438 168.351562 634.417969 168.589844 634.308594 C 171.664062 639.847656 174.734375 645.386719 177.8125 650.921875 C 177.84375 652.277344 177.871094 653.878906 177.902344 655.242188 C 178.644531 655.449219 179.019531 655.941406 179.265625 656.917969 L 203.203125 660.515625 L 203.101562 661.125 L 183.90625 660.753906 L 179.886719 659.167969 L 180.910156 708.25 C 186.902344 708.402344 192.371094 708.355469 198.140625 709.4375 L 198.574219 687.59375 L 186.277344 685.1875 L 186.339844 684.828125 L 196.496094 685.671875 L 198.746094 686.660156 C 198.96875 686.28125 199.191406 685.902344 199.417969 685.515625 C 202.136719 682.316406 204.855469 679.117188 207.574219 675.921875 C 207.6875 676.011719 207.796875 676.101562 207.910156 676.1875 C 206.039062 679.066406 204.164062 681.945312 202.292969 684.824219 C 201.648438 685.183594 200.886719 685.605469 200.242188 685.960938 C 200.332031 686.375 200.191406 686.679688 199.785156 687.042969 L 204.140625 699.421875 L 203.824219 699.53125 L 199.726562 691.429688 L 200.113281 709.855469 C 200.179688 709.871094 200.253906 709.886719 200.320312 709.910156 C 207.339844 711.570312 211.449219 710.765625 215.585938 711.488281 L 216.589844 660.496094 L 214.644531 660.109375 C 206.847656 657.085938 199.046875 654.066406 191.25 651.042969 C 191.339844 650.769531 191.429688 650.507812 191.523438 650.234375 C 198.167969 651.878906 204.816406 653.519531 211.464844 655.15625 C 212.558594 656.132812 213.847656 657.289062 214.945312 658.265625 C 215.660156 657.828125 216.324219 657.894531 217.277344 658.421875 L 237.722656 642.128906 L 238.136719 642.65625 L 223.722656 657.570312 L 219.042969 659.808594 L 222.636719 685.039062 L 221.914062 685.152344 L 219.011719 673.886719 L 219.828125 712.867188 C 220.078125 712.984375 220.355469 713.125 220.632812 713.28125 Z M 220.632812 713.28125 " fill-opacity="1" fill-rule="evenodd"/><path fill="#95bd5e" d="M 561.945312 674.9375 L 557.714844 674.9375 L 558.238281 659.632812 C 556.15625 660.925781 553.695312 661.675781 551.066406 661.675781 C 543.546875 661.675781 537.449219 655.582031 537.449219 648.0625 C 537.449219 641.265625 542.433594 635.632812 548.949219 634.621094 C 548.625 633.621094 548.449219 632.558594 548.449219 631.449219 C 548.449219 625.761719 553.066406 621.152344 558.753906 621.152344 C 564.449219 621.152344 569.058594 625.761719 569.058594 631.449219 C 569.058594 632.621094 568.867188 633.742188 568.507812 634.785156 L 568.597656 634.785156 C 576.113281 634.785156 582.214844 640.878906 582.214844 648.398438 C 582.214844 655.910156 576.121094 662.007812 568.597656 662.007812 C 565.855469 662.007812 563.304688 661.195312 561.167969 659.804688 Z M 561.945312 674.9375 " fill-opacity="1" fill-rule="evenodd"/><path fill="#95bd5e" d="M 24.652344 676.300781 C 24.554688 675.636719 24.5 674.953125 24.5 674.261719 C 24.5 666.589844 30.726562 660.371094 38.398438 660.371094 C 45.246094 660.371094 50.933594 665.316406 52.085938 671.828125 C 56.128906 674.207031 58.84375 678.605469 58.84375 683.636719 C 58.84375 690.417969 53.910156 696.042969 47.4375 697.128906 L 40.730469 707.097656 L 41.113281 719.179688 L 37.078125 719.179688 L 37.394531 703.433594 L 32.113281 696.507812 C 31.121094 696.808594 30.070312 696.96875 28.984375 696.96875 C 23.023438 696.96875 18.195312 692.140625 18.195312 686.1875 C 18.183594 681.765625 20.839844 677.964844 24.652344 676.300781 Z M 45.683594 697.308594 C 45.5 697.3125 45.324219 697.316406 45.144531 697.316406 C 43.515625 697.316406 41.957031 697.03125 40.511719 696.511719 L 40.722656 702.804688 Z M 37.558594 695.03125 C 37.121094 694.738281 36.703125 694.421875 36.304688 694.089844 C 35.535156 694.800781 34.65625 695.410156 33.699219 695.878906 L 37.386719 699.816406 Z M 37.558594 695.03125 " fill-opacity="1" fill-rule="evenodd"/><path fill="#95bd5e" d="M 1246.164062 666.890625 C 1246.15625 666.75 1246.152344 666.617188 1246.152344 666.476562 C 1246.152344 660.914062 1250.660156 656.40625 1256.226562 656.40625 C 1261.792969 656.40625 1266.300781 660.910156 1266.300781 666.476562 C 1266.300781 666.605469 1266.292969 666.730469 1266.292969 666.859375 C 1273.988281 667.644531 1279.996094 674.140625 1279.996094 682.039062 C 1279.996094 690.46875 1273.15625 697.300781 1264.722656 697.300781 L 1264.625 697.300781 L 1258.953125 705.730469 L 1259.347656 718.125 L 1255.210938 718.125 L 1255.535156 701.96875 L 1248.632812 692.914062 C 1247.933594 693.03125 1247.222656 693.09375 1246.496094 693.09375 C 1239.257812 693.09375 1233.386719 687.226562 1233.386719 679.992188 C 1233.386719 672.867188 1239.074219 667.066406 1246.164062 666.890625 Z M 1262.710938 697.171875 C 1261.335938 696.988281 1260.019531 696.625 1258.78125 696.101562 L 1258.957031 701.328125 Z M 1255.675781 694.339844 C 1254.582031 693.527344 1253.59375 692.578125 1252.746094 691.507812 C 1251.945312 691.945312 1251.089844 692.296875 1250.203125 692.5625 L 1255.53125 698.261719 Z M 1255.675781 694.339844 " fill-opacity="1" fill-rule="evenodd"/><path fill="#95bd5e" d="M 1429.675781 772.917969 L 1382.917969 772.917969 L 1382.917969 801.109375 C 1382.917969 809.824219 1363.765625 809.824219 1363.765625 801.109375 L 1363.765625 791.636719 C 1332.527344 789.257812 1306.964844 769.679688 1299.699219 743.859375 L 0.496094 743.859375 L 0.496094 715.734375 L 1299.199219 715.734375 C 1305.714844 688.972656 1331.757812 668.476562 1363.761719 666.042969 L 1363.761719 656.570312 C 1363.761719 647.855469 1382.914062 647.855469 1382.914062 656.570312 L 1382.914062 684.761719 L 1429.671875 684.761719 C 1439.488281 684.761719 1439.496094 701.039062 1429.671875 701.039062 L 1382.914062 701.039062 L 1382.914062 756.640625 L 1429.671875 756.640625 C 1439.496094 756.648438 1439.503906 772.917969 1429.675781 772.917969 Z M 1429.675781 772.917969 " fill-opacity="1" fill-rule="evenodd"/><g clip-path="url(#b11341e195)"><path fill="#95bd5e" d="M 428.011719 633.785156 L 428.011719 636.585938 C 431.132812 637.207031 434.207031 640.023438 434.207031 644.066406 L 434.222656 668.542969 L 440.429688 668.542969 L 440.429688 644.167969 C 440.429688 640.695312 443.304688 637.152344 446.621094 636.59375 L 446.621094 632.925781 L 429.027344 632.910156 C 428.269531 632.917969 428.011719 633.128906 428.011719 633.785156 Z M 1014.191406 655.359375 L 1015.621094 679.035156 L 1038.742188 679.035156 L 1038.742188 690.796875 L 1050.503906 690.796875 L 1050.503906 703.183594 L 1060.679688 703.183594 L 1060.679688 717.800781 C 783.34375 717.800781 505.21875 717.359375 228.429688 717.359375 L 228.429688 711.140625 L 236.480469 707.535156 L 236.480469 700.398438 L 240.164062 700.378906 L 240.15625 696.734375 L 246.917969 696.734375 L 247.769531 678.261719 L 251.953125 678.261719 L 252.511719 696.734375 L 254.992188 696.734375 L 254.992188 653.71875 L 282.640625 653.71875 L 282.640625 689.945312 L 303.855469 689.945312 L 303.855469 680.933594 L 305.800781 680.933594 L 305.800781 653.027344 C 305.726562 653.039062 305.652344 653.042969 305.582031 653.058594 L 305.582031 651.835938 C 307 651.578125 308.449219 651.578125 309.863281 651.835938 L 309.863281 653.058594 C 309.792969 653.042969 309.71875 653.039062 309.640625 653.027344 L 309.640625 680.933594 L 311.476562 680.933594 L 311.476562 689.917969 L 316.277344 689.917969 L 316.277344 677.566406 L 333.984375 677.566406 C 337.996094 671.644531 347.660156 667.144531 359.542969 665.867188 L 361.066406 613.402344 L 372.738281 613.402344 L 374.640625 666.007812 C 385.972656 667.453125 395.117188 671.847656 398.992188 677.566406 L 413.640625 677.566406 L 413.640625 668.539062 L 418.550781 668.539062 L 418.550781 644.191406 C 418.550781 640.28125 421.441406 637.277344 424.757812 636.578125 L 424.757812 632.910156 C 424.757812 630.863281 426.109375 629.808594 428.035156 629.808594 L 470.804688 630.105469 L 473.417969 583.652344 L 482.96875 583.652344 L 486.070312 629.820312 L 504.613281 629.824219 C 506.820312 629.824219 507.890625 630.820312 507.890625 632.871094 L 507.875 647.015625 L 524.757812 646.976562 L 524.777344 672.460938 L 595.300781 672.523438 L 595.300781 628.910156 L 611.46875 628.910156 L 614.527344 548.90625 L 631.863281 548.90625 L 634.917969 628.910156 L 651.089844 628.910156 L 651.089844 603.050781 L 663.976562 603.050781 L 667.035156 537.59375 L 683.605469 537.59375 L 686.664062 603.050781 L 700.410156 603.050781 L 700.410156 628.910156 L 710.917969 628.910156 L 710.917969 670.117188 L 719.808594 670.117188 L 719.808594 677.707031 L 737.894531 677.714844 L 737.878906 662.042969 C 737.878906 659.773438 739.066406 658.671875 741.507812 658.671875 L 761.132812 658.671875 L 763.113281 607.511719 L 777.003906 607.511719 L 779.894531 658.980469 L 788.8125 658.917969 L 790.332031 628.582031 C 793.277344 628.582031 796.226562 628.582031 799.175781 628.582031 L 801.640625 658.828125 L 805.542969 658.800781 L 807.066406 628.582031 C 810.003906 628.582031 812.941406 628.582031 815.878906 628.582031 L 818.335938 658.710938 L 826.367188 658.65625 C 828.5 658.65625 829.996094 659.820312 829.996094 662.09375 L 829.996094 666.164062 C 833.0625 666.808594 835.796875 669.230469 836.621094 672.53125 L 860.886719 672.53125 L 860.886719 594.835938 L 860.265625 594.835938 L 860.265625 589.03125 C 860.007812 589.078125 859.742188 589.09375 859.480469 589.15625 L 859.480469 584.785156 C 864.554688 583.855469 869.753906 583.855469 874.824219 584.785156 L 874.824219 589.15625 C 874.5625 589.097656 874.292969 589.078125 874.035156 589.03125 L 874.035156 594.835938 L 873.296875 594.835938 L 873.296875 672.535156 L 894.683594 672.535156 L 894.683594 654.992188 L 902.207031 654.992188 L 902.207031 639.449219 C 902.148438 639.457031 902.078125 639.464844 902.015625 639.480469 L 902.015625 638.382812 C 903.285156 638.148438 904.589844 638.148438 905.859375 638.382812 L 905.859375 639.480469 C 905.792969 639.464844 905.722656 639.457031 905.660156 639.449219 L 905.660156 654.992188 L 910.824219 654.992188 L 910.824219 639.449219 C 910.757812 639.457031 910.695312 639.464844 910.625 639.480469 L 910.625 638.382812 C 911.894531 638.148438 913.199219 638.148438 914.46875 638.382812 L 914.46875 639.480469 C 914.40625 639.464844 914.339844 639.457031 914.269531 639.449219 L 914.269531 654.992188 L 919.433594 654.992188 L 919.433594 639.449219 C 919.371094 639.457031 919.304688 639.464844 919.238281 639.480469 L 919.238281 638.382812 C 920.503906 638.148438 921.804688 638.148438 923.078125 638.382812 L 923.078125 639.480469 C 923.011719 639.464844 922.945312 639.457031 922.882812 639.449219 L 922.882812 654.992188 L 930.769531 654.992188 L 933.179688 619.902344 L 940.714844 619.902344 L 943.128906 654.992188 L 948.785156 654.992188 L 948.785156 678.761719 L 958.398438 678.761719 L 958.398438 672.0625 L 954.4375 672.0625 L 954.4375 666.703125 L 972.132812 666.703125 L 972.132812 672.0625 L 968.191406 672.0625 L 968.191406 678.761719 L 974.253906 678.761719 L 974.253906 689.714844 L 991.089844 689.714844 C 991.949219 686.160156 992.542969 682.601562 992.542969 679.042969 L 1003.285156 679.042969 L 1004.707031 655.367188 L 1014.191406 655.367188 Z M 487.195312 646.941406 L 504.605469 647.015625 L 504.605469 633.777344 C 504.605469 633.222656 504.417969 632.894531 503.734375 632.894531 L 486.1875 632.894531 Z M 470.652344 633.195312 L 449.917969 632.917969 L 449.917969 636.632812 C 453.152344 637.1875 456.09375 640.390625 456.09375 644.246094 L 456.09375 668.550781 L 469.21875 658.492188 Z M 279.242188 651.8125 L 279.242188 646.105469 L 274.679688 646.105469 L 274.679688 637.019531 L 271.191406 637.019531 L 271.191406 646.105469 L 259.753906 646.105469 L 259.753906 651.8125 Z M 279.242188 651.8125 " fill-opacity="1" fill-rule="evenodd"/></g></svg>