<svg xmlns="http://www.w3.org/2000/svg" xmlns:xlink="http://www.w3.org/1999/xlink" width="1920" zoomAndPan="magnify" viewBox="0 0 1440 809.999993" height="1080" preserveAspectRatio="xMidYMid meet" version="1.0"><defs><clipPath id="1346bf8b70"><path d="M 228 268.800781 L 1061 268.800781 L 1061 450 L 228 450 Z M 228 268.800781 " clip-rule="nonzero"/></clipPath></defs><path fill="#95bd5e" d="M 1068.429688 444.160156 C 1064.339844 446.410156 1059.742188 443.976562 1057.476562 448.058594 C 1111.421875 448.078125 1165.367188 448.097656 1219.3125 448.121094 C 1216.980469 444.761719 1212.945312 445.195312 1208.914062 443.710938 C 1208.0625 443.402344 1207.242188 443.140625 1206.441406 442.917969 L 1205.757812 408.449219 L 1221.371094 415.359375 L 1221.585938 414.898438 L 1209.300781 407.742188 L 1205.9375 407.070312 C 1205.988281 406.457031 1206.035156 405.84375 1206.082031 405.230469 C 1205.53125 399.402344 1204.980469 393.566406 1204.429688 387.734375 C 1204.230469 387.746094 1204.03125 387.753906 1203.835938 387.765625 C 1203.675781 392.558594 1203.511719 397.347656 1203.351562 402.140625 C 1203.800781 403.066406 1204.335938 404.152344 1204.78125 405.082031 C 1204.351562 405.476562 1204.273438 405.9375 1204.445312 406.679688 L 1189.554688 417.355469 L 1189.828125 417.730469 L 1202.632812 410.863281 L 1204.21875 409.066406 L 1203.523438 442.261719 C 1199.519531 441.515625 1195.722656 441.378906 1190.679688 439.867188 C 1188.257812 439.140625 1185.652344 439.242188 1182.898438 439.472656 L 1181.601562 373.941406 L 1183.101562 374.382812 C 1193.292969 375.53125 1203.480469 376.6875 1213.671875 377.835938 C 1213.722656 377.492188 1213.78125 377.148438 1213.828125 376.804688 C 1205.675781 374.8125 1197.527344 372.816406 1189.375 370.820312 C 1187.628906 371.257812 1185.574219 371.777344 1183.828125 372.210938 C 1183.304688 371.335938 1182.539062 371.027344 1181.214844 371.058594 L 1168.273438 341.738281 L 1167.527344 342.078125 L 1174.695312 366.464844 L 1178.503906 371.558594 L 1160.25 396.917969 L 1160.96875 397.453125 L 1177.640625 378.988281 L 1178.921875 375.996094 L 1177.585938 439.878906 C 1176.082031 439.941406 1174.546875 439.914062 1172.976562 439.722656 C 1167.878906 439.082031 1162.359375 438.121094 1156.714844 437.648438 L 1156.265625 414.976562 L 1158.363281 425.09375 L 1158.773438 425.003906 L 1157.804688 412.050781 L 1156.449219 409.097656 L 1168.292969 398.378906 L 1167.992188 398.035156 L 1157.675781 405.476562 L 1155.902344 407.980469 C 1155.417969 407.714844 1154.9375 407.457031 1154.453125 407.191406 C 1149.480469 405.523438 1144.511719 403.855469 1139.539062 402.191406 C 1139.476562 402.359375 1139.417969 402.523438 1139.347656 402.691406 C 1143.207031 404.5625 1147.070312 406.433594 1150.925781 408.300781 C 1151.847656 408.273438 1152.929688 408.234375 1153.847656 408.199219 C 1153.996094 408.628906 1154.28125 408.863281 1154.789062 409 L 1154.199219 437.472656 C 1151.042969 437.292969 1147.863281 437.304688 1144.703125 437.644531 C 1141.71875 437.960938 1138.5 437.550781 1134.820312 437.320312 L 1133.160156 353.230469 L 1161.96875 380.644531 C 1162.296875 380.328125 1162.625 380.011719 1162.953125 379.695312 C 1156.015625 371.15625 1149.082031 362.625 1142.140625 354.085938 C 1139.96875 353.160156 1137.410156 352.082031 1135.234375 351.15625 C 1135.382812 349.820312 1134.824219 348.894531 1133.417969 347.875 L 1143.125 307 L 1142.078125 306.761719 L 1130.25 337.914062 L 1130.199219 346.25 L 1091.03125 358.300781 L 1091.355469 359.429688 L 1123.402344 353.332031 L 1129.671875 349.757812 L 1127.84375 437.269531 C 1126.460938 437.355469 1125.015625 437.519531 1123.496094 437.789062 C 1119.398438 438.503906 1115.664062 438.828125 1112.152344 439 L 1111.21875 391.851562 L 1124.476562 408.214844 L 1125.007812 407.796875 L 1114.871094 391.992188 L 1111.320312 389.175781 C 1111.746094 388.484375 1112.175781 387.792969 1112.601562 387.09375 C 1115.46875 379.902344 1118.332031 372.714844 1121.191406 365.523438 C 1120.953125 365.414062 1120.714844 365.3125 1120.476562 365.203125 C 1117.402344 370.742188 1114.328125 376.28125 1111.25 381.816406 C 1111.21875 383.171875 1111.195312 384.773438 1111.164062 386.132812 C 1110.417969 386.34375 1110.046875 386.835938 1109.800781 387.8125 L 1085.863281 391.402344 L 1085.960938 392.011719 L 1105.15625 391.636719 L 1109.175781 390.050781 L 1108.152344 439.132812 C 1102.164062 439.285156 1096.691406 439.238281 1090.921875 440.320312 L 1090.492188 418.476562 L 1102.785156 416.070312 L 1102.746094 415.707031 L 1092.589844 416.550781 L 1090.339844 417.539062 C 1090.117188 417.15625 1089.894531 416.777344 1089.667969 416.394531 C 1086.949219 413.199219 1084.226562 409.996094 1081.511719 406.800781 C 1081.398438 406.890625 1081.289062 406.976562 1081.171875 407.066406 C 1083.046875 409.945312 1084.921875 412.824219 1086.792969 415.703125 C 1087.4375 416.0625 1088.199219 416.480469 1088.84375 416.839844 C 1088.753906 417.25 1088.894531 417.558594 1089.300781 417.921875 L 1084.941406 430.300781 L 1085.261719 430.410156 L 1089.355469 422.3125 L 1088.972656 440.738281 C 1088.90625 440.753906 1088.832031 440.769531 1088.765625 440.785156 C 1081.746094 442.449219 1077.636719 441.644531 1073.5 442.367188 L 1072.496094 391.371094 L 1074.441406 390.988281 C 1082.238281 387.964844 1090.039062 384.945312 1097.84375 381.917969 C 1097.75 381.648438 1097.660156 381.382812 1097.566406 381.113281 C 1090.921875 382.757812 1084.273438 384.398438 1077.628906 386.035156 C 1076.53125 387.011719 1075.242188 388.164062 1074.144531 389.144531 C 1073.433594 388.707031 1072.765625 388.773438 1071.816406 389.296875 L 1051.367188 373.007812 L 1050.957031 373.53125 L 1065.363281 388.445312 L 1070.042969 390.6875 L 1066.449219 415.914062 L 1067.167969 416.03125 L 1070.066406 404.765625 L 1069.25 443.742188 C 1068.980469 443.867188 1068.710938 444.007812 1068.429688 444.160156 Z M 1068.429688 444.160156 " fill-opacity="1" fill-rule="evenodd"/><path fill="#95bd5e" d="M 220.632812 444.480469 C 224.726562 446.738281 229.328125 444.300781 231.589844 448.382812 C 177.640625 448.40625 123.699219 448.425781 69.75 448.445312 C 72.085938 445.089844 76.125 445.519531 80.148438 444.039062 C 81.003906 443.722656 81.824219 443.46875 82.625 443.246094 L 83.304688 408.769531 L 67.691406 415.683594 L 67.480469 415.21875 L 79.765625 408.0625 L 83.128906 407.394531 C 83.078125 406.78125 83.03125 406.167969 82.976562 405.554688 C 83.53125 399.722656 84.082031 393.886719 84.632812 388.058594 C 84.828125 388.066406 85.027344 388.078125 85.230469 388.089844 C 85.390625 392.878906 85.550781 397.671875 85.714844 402.460938 C 85.261719 403.386719 84.730469 404.472656 84.285156 405.402344 C 84.714844 405.796875 84.792969 406.261719 84.621094 407.003906 L 99.511719 417.675781 L 99.238281 418.050781 L 86.429688 411.1875 L 84.84375 409.390625 L 85.535156 442.585938 C 89.539062 441.835938 93.335938 441.703125 98.378906 440.1875 C 100.800781 439.460938 103.40625 439.566406 106.167969 439.792969 L 107.457031 374.265625 L 105.960938 374.707031 C 95.769531 375.855469 85.578125 377.007812 75.386719 378.15625 C 75.335938 377.8125 75.277344 377.472656 75.226562 377.128906 C 83.378906 375.132812 91.53125 373.136719 99.683594 371.140625 C 101.429688 371.578125 103.484375 372.097656 105.230469 372.535156 C 105.757812 371.65625 106.519531 371.351562 107.851562 371.382812 L 120.789062 342.0625 L 121.53125 342.398438 L 114.367188 366.789062 L 110.554688 371.878906 L 128.808594 397.238281 L 128.09375 397.773438 L 111.417969 379.3125 L 110.140625 376.316406 L 111.476562 440.199219 C 112.976562 440.261719 114.511719 440.234375 116.078125 440.042969 C 121.183594 439.40625 126.695312 438.441406 132.339844 437.96875 L 132.789062 415.296875 L 130.691406 425.414062 L 130.285156 425.328125 L 131.253906 412.371094 L 132.609375 409.421875 L 120.765625 398.699219 L 121.066406 398.355469 L 131.382812 405.796875 L 133.15625 408.300781 C 133.640625 408.039062 134.125 407.777344 134.605469 407.511719 C 139.578125 405.84375 144.546875 404.175781 149.519531 402.515625 C 149.582031 402.679688 149.644531 402.847656 149.710938 403.011719 C 145.851562 404.882812 141.988281 406.753906 138.132812 408.625 C 137.210938 408.59375 136.128906 408.558594 135.210938 408.519531 C 135.066406 408.953125 134.785156 409.1875 134.269531 409.320312 L 134.867188 437.792969 C 138.019531 437.617188 141.199219 437.632812 144.359375 437.964844 C 147.34375 438.28125 150.5625 437.871094 154.246094 437.636719 L 155.902344 353.546875 L 127.09375 380.964844 C 126.765625 380.644531 126.4375 380.328125 126.113281 380.011719 C 133.046875 371.472656 139.988281 362.941406 146.925781 354.402344 C 149.097656 353.480469 151.65625 352.398438 153.828125 351.46875 C 153.683594 350.132812 154.234375 349.207031 155.648438 348.1875 L 145.941406 307.3125 L 146.988281 307.074219 L 158.816406 338.226562 L 158.867188 346.5625 L 198.035156 358.613281 L 197.710938 359.742188 L 165.664062 353.644531 L 159.390625 350.070312 L 161.222656 437.582031 C 162.605469 437.667969 164.050781 437.828125 165.570312 438.09375 C 169.664062 438.8125 173.398438 439.132812 176.914062 439.304688 L 177.84375 392.15625 L 164.585938 408.519531 L 164.054688 408.105469 L 174.195312 392.296875 L 177.746094 389.480469 C 177.320312 388.789062 176.886719 388.097656 176.460938 387.402344 C 173.597656 380.210938 170.738281 373.023438 167.871094 365.832031 C 168.109375 365.722656 168.351562 365.617188 168.589844 365.507812 C 171.664062 371.046875 174.734375 376.585938 177.8125 382.121094 C 177.84375 383.476562 177.871094 385.078125 177.902344 386.441406 C 178.644531 386.648438 179.019531 387.140625 179.265625 388.117188 L 203.203125 391.714844 L 203.101562 392.324219 L 183.90625 391.953125 L 179.886719 390.371094 L 180.910156 439.449219 C 186.902344 439.601562 192.371094 439.554688 198.140625 440.636719 L 198.574219 418.792969 L 186.277344 416.386719 L 186.339844 416.03125 L 196.496094 416.871094 L 198.746094 417.859375 C 198.96875 417.480469 199.191406 417.101562 199.417969 416.714844 C 202.136719 413.515625 204.855469 410.320312 207.574219 407.125 C 207.6875 407.210938 207.796875 407.300781 207.910156 407.386719 C 206.039062 410.265625 204.164062 413.144531 202.292969 416.023438 C 201.648438 416.382812 200.886719 416.804688 200.242188 417.164062 C 200.332031 417.574219 200.191406 417.878906 199.785156 418.242188 L 204.140625 430.621094 L 203.824219 430.730469 L 199.726562 422.628906 L 200.113281 441.058594 C 200.179688 441.074219 200.253906 441.089844 200.320312 441.109375 C 207.339844 442.773438 211.449219 441.964844 215.585938 442.6875 L 216.589844 391.695312 L 214.644531 391.308594 C 206.847656 388.285156 199.046875 385.265625 191.25 382.242188 C 191.339844 381.972656 191.429688 381.707031 191.523438 381.4375 C 198.167969 383.078125 204.816406 384.71875 211.464844 386.355469 C 212.558594 387.335938 213.847656 388.488281 214.945312 389.464844 C 215.660156 389.027344 216.324219 389.097656 217.277344 389.621094 L 237.722656 373.328125 L 238.136719 373.855469 L 223.722656 388.769531 L 219.042969 391.007812 L 222.636719 416.238281 L 221.914062 416.351562 L 219.011719 405.085938 L 219.828125 444.066406 C 220.078125 444.183594 220.355469 444.324219 220.632812 444.480469 Z M 220.632812 444.480469 " fill-opacity="1" fill-rule="evenodd"/><path fill="#95bd5e" d="M 561.945312 406.136719 L 557.714844 406.136719 L 558.238281 390.832031 C 556.15625 392.125 553.695312 392.875 551.066406 392.875 C 543.546875 392.875 537.449219 386.785156 537.449219 379.265625 C 537.449219 372.46875 542.433594 366.832031 548.949219 365.820312 C 548.625 364.824219 548.449219 363.757812 548.449219 362.652344 C 548.449219 356.960938 553.066406 352.351562 558.753906 352.351562 C 564.449219 352.351562 569.058594 356.960938 569.058594 362.652344 C 569.058594 363.820312 568.867188 364.941406 568.507812 365.988281 L 568.597656 365.988281 C 576.113281 365.988281 582.214844 372.078125 582.214844 379.597656 C 582.214844 387.109375 576.121094 393.207031 568.597656 393.207031 C 565.855469 393.207031 563.304688 392.394531 561.167969 391.003906 Z M 561.945312 406.136719 " fill-opacity="1" fill-rule="evenodd"/><path fill="#95bd5e" d="M 24.652344 407.503906 C 24.554688 406.835938 24.5 406.152344 24.5 405.460938 C 24.5 397.789062 30.726562 391.570312 38.398438 391.570312 C 45.246094 391.570312 50.933594 396.515625 52.085938 403.027344 C 56.128906 405.410156 58.84375 409.804688 58.84375 414.835938 C 58.84375 421.617188 53.910156 427.246094 47.4375 428.332031 L 40.730469 438.296875 L 41.113281 450.378906 L 37.078125 450.378906 L 37.394531 434.632812 L 32.113281 427.707031 C 31.121094 428.007812 30.070312 428.167969 28.984375 428.167969 C 23.023438 428.167969 18.195312 423.339844 18.195312 417.386719 C 18.183594 412.964844 20.839844 409.164062 24.652344 407.503906 Z M 45.683594 428.507812 C 45.5 428.511719 45.324219 428.519531 45.144531 428.519531 C 43.515625 428.519531 41.957031 428.230469 40.511719 427.710938 L 40.722656 434.003906 Z M 37.558594 426.230469 C 37.121094 425.941406 36.703125 425.625 36.304688 425.289062 C 35.535156 426.003906 34.65625 426.609375 33.699219 427.078125 L 37.386719 431.015625 Z M 37.558594 426.230469 " fill-opacity="1" fill-rule="evenodd"/><path fill="#95bd5e" d="M 1246.164062 398.089844 C 1246.15625 397.949219 1246.152344 397.816406 1246.152344 397.675781 C 1246.152344 392.117188 1250.660156 387.605469 1256.226562 387.605469 C 1261.792969 387.605469 1266.300781 392.109375 1266.300781 397.675781 C 1266.300781 397.804688 1266.292969 397.929688 1266.292969 398.058594 C 1273.988281 398.84375 1279.996094 405.339844 1279.996094 413.238281 C 1279.996094 421.667969 1273.15625 428.503906 1264.722656 428.503906 L 1264.625 428.503906 L 1258.953125 436.929688 L 1259.347656 449.324219 L 1255.210938 449.324219 L 1255.535156 433.167969 L 1248.632812 424.117188 C 1247.933594 424.230469 1247.222656 424.292969 1246.496094 424.292969 C 1239.257812 424.292969 1233.386719 418.425781 1233.386719 411.191406 C 1233.386719 404.066406 1239.074219 398.269531 1246.164062 398.089844 Z M 1262.710938 428.371094 C 1261.335938 428.191406 1260.019531 427.828125 1258.78125 427.300781 L 1258.957031 432.53125 Z M 1255.675781 425.539062 C 1254.582031 424.730469 1253.59375 423.777344 1252.746094 422.707031 C 1251.945312 423.144531 1251.089844 423.496094 1250.203125 423.761719 L 1255.53125 429.464844 Z M 1255.675781 425.539062 " fill-opacity="1" fill-rule="evenodd"/><path fill="#95bd5e" d="M 1429.675781 504.117188 L 1382.917969 504.117188 L 1382.917969 532.308594 C 1382.917969 541.023438 1363.765625 541.023438 1363.765625 532.308594 L 1363.765625 522.835938 C 1332.527344 520.457031 1306.964844 500.878906 1299.699219 475.058594 L 0.496094 475.058594 L 0.496094 446.933594 L 1299.199219 446.933594 C 1305.714844 420.171875 1331.757812 399.675781 1363.761719 397.246094 L 1363.761719 387.769531 C 1363.761719 379.054688 1382.914062 379.054688 1382.914062 387.769531 L 1382.914062 415.960938 L 1429.671875 415.960938 C 1439.488281 415.960938 1439.496094 432.238281 1429.671875 432.238281 L 1382.914062 432.238281 L 1382.914062 487.84375 L 1429.671875 487.84375 C 1439.496094 487.847656 1439.503906 504.117188 1429.675781 504.117188 Z M 1429.675781 504.117188 " fill-opacity="1" fill-rule="evenodd"/><g clip-path="url(#1346bf8b70)"><path fill="#95bd5e" d="M 428.011719 364.984375 L 428.011719 367.785156 C 431.132812 368.410156 434.207031 371.226562 434.207031 375.269531 L 434.222656 399.742188 L 440.429688 399.742188 L 440.429688 375.367188 C 440.429688 371.894531 443.304688 368.351562 446.621094 367.796875 L 446.621094 364.125 L 429.027344 364.109375 C 428.269531 364.117188 428.011719 364.328125 428.011719 364.984375 Z M 1014.191406 386.558594 L 1015.621094 410.234375 L 1038.742188 410.234375 L 1038.742188 421.996094 L 1050.503906 421.996094 L 1050.503906 434.382812 L 1060.679688 434.382812 L 1060.679688 449.003906 C 783.34375 449.003906 505.21875 448.5625 228.429688 448.5625 L 228.429688 442.339844 L 236.480469 438.734375 L 236.480469 431.597656 L 240.164062 431.578125 L 240.15625 427.9375 L 246.917969 427.9375 L 247.769531 409.460938 L 251.953125 409.460938 L 252.511719 427.9375 L 254.992188 427.9375 L 254.992188 384.917969 L 282.640625 384.917969 L 282.640625 421.144531 L 303.855469 421.144531 L 303.855469 412.132812 L 305.800781 412.132812 L 305.800781 384.226562 C 305.726562 384.238281 305.652344 384.242188 305.582031 384.257812 L 305.582031 383.035156 C 307 382.777344 308.449219 382.777344 309.863281 383.035156 L 309.863281 384.257812 C 309.792969 384.242188 309.71875 384.238281 309.640625 384.226562 L 309.640625 412.132812 L 311.476562 412.132812 L 311.476562 421.117188 L 316.277344 421.117188 L 316.277344 408.765625 L 333.984375 408.765625 C 337.996094 402.847656 347.660156 398.347656 359.542969 397.066406 L 361.066406 344.601562 L 372.738281 344.601562 L 374.640625 397.207031 C 385.972656 398.652344 395.117188 403.050781 398.992188 408.765625 L 413.640625 408.765625 L 413.640625 399.738281 L 418.550781 399.738281 L 418.550781 375.394531 C 418.550781 371.480469 421.441406 368.476562 424.757812 367.78125 L 424.757812 364.109375 C 424.757812 362.0625 426.109375 361.007812 428.035156 361.007812 L 470.804688 361.304688 L 473.417969 314.851562 L 482.96875 314.851562 L 486.070312 361.019531 L 504.613281 361.023438 C 506.820312 361.023438 507.890625 362.023438 507.890625 364.070312 L 507.875 378.214844 L 524.757812 378.179688 L 524.777344 403.664062 L 595.300781 403.722656 L 595.300781 360.109375 L 611.46875 360.109375 L 614.527344 280.109375 L 631.863281 280.109375 L 634.917969 360.109375 L 651.089844 360.109375 L 651.089844 334.25 L 663.976562 334.25 L 667.035156 268.792969 L 683.605469 268.792969 L 686.664062 334.25 L 700.410156 334.25 L 700.410156 360.109375 L 710.917969 360.109375 L 710.917969 401.320312 L 719.808594 401.320312 L 719.808594 408.90625 L 737.894531 408.914062 L 737.878906 393.242188 C 737.878906 390.972656 739.066406 389.871094 741.507812 389.871094 L 761.132812 389.871094 L 763.113281 338.710938 L 777.003906 338.710938 L 779.894531 390.183594 L 788.8125 390.121094 L 790.332031 359.78125 C 793.277344 359.78125 796.226562 359.78125 799.175781 359.78125 L 801.640625 390.027344 L 805.542969 390 L 807.066406 359.78125 C 810.003906 359.78125 812.941406 359.78125 815.878906 359.78125 L 818.335938 389.910156 L 826.367188 389.855469 C 828.5 389.855469 829.996094 391.019531 829.996094 393.296875 L 829.996094 397.363281 C 833.0625 398.007812 835.796875 400.429688 836.621094 403.730469 L 860.886719 403.730469 L 860.886719 326.035156 L 860.265625 326.035156 L 860.265625 320.230469 C 860.007812 320.277344 859.742188 320.292969 859.480469 320.355469 L 859.480469 315.984375 C 864.554688 315.054688 869.753906 315.054688 874.824219 315.984375 L 874.824219 320.355469 C 874.5625 320.296875 874.292969 320.277344 874.035156 320.230469 L 874.035156 326.035156 L 873.296875 326.035156 L 873.296875 403.734375 L 894.683594 403.734375 L 894.683594 386.191406 L 902.207031 386.191406 L 902.207031 370.648438 C 902.148438 370.660156 902.078125 370.664062 902.015625 370.679688 L 902.015625 369.582031 C 903.285156 369.347656 904.589844 369.347656 905.859375 369.582031 L 905.859375 370.679688 C 905.792969 370.664062 905.722656 370.660156 905.660156 370.648438 L 905.660156 386.191406 L 910.824219 386.191406 L 910.824219 370.648438 C 910.757812 370.660156 910.695312 370.664062 910.625 370.679688 L 910.625 369.582031 C 911.894531 369.347656 913.199219 369.347656 914.46875 369.582031 L 914.46875 370.679688 C 914.40625 370.664062 914.339844 370.660156 914.269531 370.648438 L 914.269531 386.191406 L 919.433594 386.191406 L 919.433594 370.648438 C 919.371094 370.660156 919.304688 370.664062 919.238281 370.679688 L 919.238281 369.582031 C 920.503906 369.347656 921.804688 369.347656 923.078125 369.582031 L 923.078125 370.679688 C 923.011719 370.664062 922.945312 370.660156 922.882812 370.648438 L 922.882812 386.191406 L 930.769531 386.191406 L 933.179688 351.105469 L 940.714844 351.105469 L 943.128906 386.191406 L 948.785156 386.191406 L 948.785156 409.960938 L 958.398438 409.960938 L 958.398438 403.261719 L 954.4375 403.261719 L 954.4375 397.90625 L 972.132812 397.90625 L 972.132812 403.261719 L 968.191406 403.261719 L 968.191406 409.960938 L 974.253906 409.960938 L 974.253906 420.914062 L 991.089844 420.914062 C 991.949219 417.359375 992.542969 413.800781 992.542969 410.242188 L 1003.285156 410.242188 L 1004.707031 386.566406 L 1014.191406 386.566406 Z M 487.195312 378.140625 L 504.605469 378.214844 L 504.605469 364.980469 C 504.605469 364.421875 504.417969 364.09375 503.734375 364.09375 L 486.1875 364.09375 Z M 470.652344 364.398438 L 449.917969 364.117188 L 449.917969 367.832031 C 453.152344 368.386719 456.09375 371.589844 456.09375 375.445312 L 456.09375 399.75 L 469.21875 389.695312 Z M 279.242188 383.011719 L 279.242188 377.304688 L 274.679688 377.304688 L 274.679688 368.222656 L 271.191406 368.222656 L 271.191406 377.304688 L 259.753906 377.304688 L 259.753906 383.011719 Z M 279.242188 383.011719 " fill-opacity="1" fill-rule="evenodd"/></g></svg>